<svg width="24" height="26" viewBox="0 0 24 26" fill="none" xmlns="http://www.w3.org/2000/svg">
<path fill-rule="evenodd" clip-rule="evenodd" d="M20.8142 17.0034H7.43232C6.91821 17.0034 6.43405 16.8635 6.02476 16.6237V18.452C6.02476 19.2263 6.65367 19.8607 7.43232 19.8607H20.1603C21.6577 19.8607 22.8806 21.0845 22.8806 22.5831C22.8806 24.0817 21.6577 25.3056 20.1603 25.3056C18.6629 25.3056 17.44 24.0867 17.44 22.5831C17.44 22.0836 17.5748 21.614 17.8144 21.2094H11.7549C11.9944 21.609 12.1292 22.0836 12.1292 22.5831C12.1292 24.0817 10.9063 25.3056 9.40891 25.3056C7.9115 25.3056 6.68861 24.0867 6.68861 22.5831C6.68861 22.0736 6.83336 21.594 7.07794 21.1844C5.72527 21.0096 4.67708 19.8507 4.67708 18.452V14.256V10.9341V7.21758V6.73304V3.67592L1.41272 2.29722C1.06832 2.15235 0.908595 1.75772 1.05335 1.41305C1.1981 1.06837 1.59241 0.908524 1.93682 1.05339L5.61546 2.60193C5.62545 2.60692 5.63668 2.61192 5.64791 2.61692C5.65914 2.62191 5.67037 2.62691 5.68035 2.6319C5.68285 2.6344 5.68534 2.63565 5.68784 2.6369C5.69033 2.63815 5.69283 2.63939 5.69533 2.64189C5.70531 2.64689 5.72028 2.65688 5.73526 2.66687C5.74025 2.67186 5.74524 2.67561 5.75023 2.67936C5.75522 2.6831 5.76021 2.68685 5.7652 2.69184C5.7677 2.69434 5.77144 2.69684 5.77518 2.69933L5.77519 2.69934L5.77519 2.69934C5.77893 2.70184 5.78268 2.70433 5.78517 2.70683C5.80014 2.71682 5.81013 2.72681 5.82011 2.7368L5.83508 2.75179L5.86503 2.78176L5.88001 2.79675C5.8825 2.80174 5.88624 2.80673 5.88998 2.81173L5.88999 2.81173C5.89373 2.81673 5.89748 2.82172 5.89997 2.82672C5.90247 2.83171 5.90496 2.83546 5.90746 2.83921C5.90996 2.84295 5.91245 2.8467 5.91495 2.85169C5.91744 2.85669 5.91994 2.86044 5.92243 2.86418C5.92493 2.86793 5.92742 2.87168 5.92992 2.87667C5.9399 2.88666 5.94489 2.89665 5.94989 2.90664C5.95238 2.90914 5.95363 2.91289 5.95488 2.91663C5.95612 2.92038 5.95737 2.92413 5.95987 2.92662C5.96985 2.94161 5.97484 2.9516 5.97983 2.96659C5.97983 2.96908 5.98108 2.97283 5.98233 2.97657L5.98233 2.97658C5.98358 2.98032 5.98483 2.98407 5.98483 2.98657L5.9998 3.03152C5.9998 3.03652 6.00105 3.04027 6.0023 3.04401C6.00354 3.04776 6.00479 3.05151 6.00479 3.0565C6.00729 3.06399 6.00853 3.07024 6.00978 3.07648C6.01103 3.08273 6.01228 3.08897 6.01477 3.09646C6.01477 3.10396 6.01602 3.11145 6.01727 3.11894C6.01852 3.12644 6.01976 3.13393 6.01976 3.14142C6.02476 3.15141 6.02476 3.15641 6.02476 3.1614C6.02975 3.18138 6.02975 3.20636 6.02975 3.23133V3.23134V5.59911L22.9904 7.9419C22.9963 7.9419 23.0004 7.94362 23.0039 7.94504C23.0063 7.94604 23.0083 7.9469 23.0104 7.9469C23.0254 7.9469 23.0354 7.9469 23.0503 7.95189C23.0524 7.95189 23.0553 7.95275 23.0588 7.95375C23.0636 7.95517 23.0695 7.95689 23.0753 7.95689C23.0853 7.95689 23.1003 7.96188 23.1102 7.96688C23.1152 7.96938 23.1202 7.97063 23.1252 7.97187C23.1302 7.97312 23.1352 7.97437 23.1402 7.97687L23.1701 7.99186L23.2001 8.00684L23.23 8.02183C23.24 8.03182 23.25 8.03681 23.26 8.04181C23.265 8.04431 23.2687 8.0468 23.2725 8.0493C23.2762 8.0518 23.2799 8.0543 23.2849 8.05679C23.2899 8.05929 23.2949 8.06304 23.2999 8.06678C23.3049 8.07053 23.3099 8.07428 23.3149 8.07678C23.3199 8.07927 23.3236 8.08302 23.3274 8.08677C23.3311 8.09051 23.3349 8.09426 23.3398 8.09676L23.3648 8.12173L23.3674 8.12405L23.3704 8.12641C23.3754 8.13021 23.3813 8.13475 23.3848 8.14171C23.3873 8.14671 23.391 8.15046 23.3947 8.1542C23.3985 8.15795 23.4022 8.1617 23.4047 8.16669C23.4072 8.17169 23.411 8.17543 23.4147 8.17918C23.4185 8.18293 23.4222 8.18667 23.4247 8.19167C23.4347 8.20166 23.4397 8.20665 23.4447 8.21664C23.4472 8.22164 23.4509 8.22663 23.4546 8.23163C23.4584 8.23662 23.4621 8.24162 23.4646 8.24662C23.4671 8.25161 23.4696 8.25536 23.4721 8.2591C23.4746 8.26285 23.4771 8.2666 23.4796 8.27159L23.4946 8.30156C23.4996 8.30656 23.5046 8.31655 23.5095 8.32654C23.5145 8.34153 23.5195 8.35152 23.5245 8.36151C23.526 8.36454 23.5271 8.36758 23.528 8.37062C23.5285 8.37258 23.529 8.37453 23.5295 8.37649C23.5308 8.38149 23.532 8.38648 23.5345 8.39148C23.537 8.39647 23.5382 8.40147 23.5395 8.40646C23.5407 8.41146 23.542 8.41646 23.5445 8.42145C23.5467 8.42802 23.5479 8.43363 23.549 8.4387C23.5504 8.4452 23.5517 8.45081 23.5545 8.45642C23.5545 8.46141 23.5557 8.46641 23.557 8.4714L23.557 8.47143C23.5582 8.47642 23.5595 8.4814 23.5595 8.48639C23.5595 8.49138 23.5607 8.49761 23.562 8.50384L23.562 8.50387C23.5632 8.51012 23.5645 8.51636 23.5645 8.52136C23.5694 8.53135 23.5694 8.54134 23.5694 8.55133V8.59129V8.61127V14.246C23.5694 15.7645 22.3316 17.0034 20.8142 17.0034ZM9.4139 23.9518C10.1676 23.9518 10.7865 23.3374 10.7865 22.5781C10.7865 21.8188 10.1676 21.2044 9.4139 21.2044C8.6602 21.2044 8.04127 21.8238 8.04127 22.5781C8.04127 23.3324 8.6602 23.9518 9.4139 23.9518ZM21.538 22.5781C21.538 23.3374 20.919 23.9518 20.1653 23.9518C19.4116 23.9518 18.7927 23.3324 18.7927 22.5781C18.7927 21.8238 19.4116 21.2044 20.1653 21.2044C20.919 21.2044 21.538 21.8188 21.538 22.5781ZM7.43232 15.6546H20.8142C21.5879 15.6546 22.2218 15.0252 22.2218 14.241V9.19073L6.02476 6.95783V7.20759V10.9241V14.246C6.02476 15.0202 6.65367 15.6546 7.43232 15.6546Z" fill="#6E7FAA"/>
<path d="M6.02476 16.6237L6.15113 16.408L5.77476 16.1875V16.6237H6.02476ZM17.8144 21.2094L18.0295 21.3368L18.253 20.9594H17.8144V21.2094ZM11.7549 21.2094V20.9594H11.3135L11.5404 21.338L11.7549 21.2094ZM7.07794 21.1844L7.29258 21.3126L7.48798 20.9854L7.10998 20.9365L7.07794 21.1844ZM4.67708 3.67592H4.92708V3.51012L4.77435 3.44562L4.67708 3.67592ZM1.41272 2.29722L1.50999 2.06691L1.50965 2.06677L1.41272 2.29722ZM1.93682 1.05339L2.03381 0.82297L2.03375 0.822943L1.93682 1.05339ZM5.61546 2.60193L5.72733 2.37836L5.72001 2.37469L5.71246 2.37151L5.61546 2.60193ZM5.64791 2.61692L5.74951 2.38849L5.74951 2.38849L5.64791 2.61692ZM5.68035 2.6319L5.8572 2.45519L5.82851 2.42649L5.79222 2.40833L5.68035 2.6319ZM5.69533 2.64189L5.51848 2.8186L5.54716 2.8473L5.58345 2.86546L5.69533 2.64189ZM5.73526 2.66687L5.91211 2.49017L5.89461 2.47265L5.87401 2.45891L5.73526 2.66687ZM5.7652 2.69184L5.58835 2.86855L5.58836 2.86855L5.7652 2.69184ZM5.77518 2.69933L5.63642 2.90729L5.63651 2.90735L5.77518 2.69933ZM5.77519 2.69934L5.91683 2.49331L5.91386 2.49133L5.77519 2.69934ZM5.77519 2.69934L5.63355 2.90537L5.63643 2.9073L5.77519 2.69934ZM5.78517 2.70683L5.60832 2.88354L5.62582 2.90105L5.64642 2.91479L5.78517 2.70683ZM5.82011 2.7368L5.64326 2.91351L5.64326 2.91351L5.82011 2.7368ZM5.83508 2.75179L6.01193 2.57508L6.01193 2.57508L5.83508 2.75179ZM5.88001 2.79675L6.10365 2.68501L6.08552 2.64873L6.05685 2.62004L5.88001 2.79675ZM5.88998 2.81173L5.68992 2.96164L5.68998 2.96173L5.88998 2.81173ZM5.88999 2.81173L6.09004 2.66181L6.08999 2.66173L5.88999 2.81173ZM5.92992 2.87667L5.70628 2.98841L5.72441 3.02469L5.75307 3.05338L5.92992 2.87667ZM5.94989 2.90664L5.72625 3.01838L5.74437 3.05466L5.77304 3.08335L5.94989 2.90664ZM5.95488 2.91663L5.71768 2.99561L5.71769 2.99564L5.95488 2.91663ZM5.95987 2.92662L6.16793 2.78803L6.15421 2.76742L6.13671 2.74991L5.95987 2.92662ZM5.97983 2.96659H6.22983V2.92605L6.21702 2.88758L5.97983 2.96659ZM5.98233 2.97657L6.22568 2.91931L6.22309 2.90831L6.21952 2.89758L5.98233 2.97657ZM5.98233 2.97658L5.73898 3.03384L5.74157 3.04485L5.74514 3.05558L5.98233 2.97658ZM5.98483 2.98657H5.73483V3.02711L5.74764 3.06557L5.98483 2.98657ZM5.9998 3.03152H6.2498V2.99099L6.23699 2.95252L5.9998 3.03152ZM6.00479 3.0565H5.75479V3.09704L5.7676 3.1355L6.00479 3.0565ZM6.00978 3.07648L5.76463 3.12546L5.76463 3.12548L6.00978 3.07648ZM6.01477 3.09646H6.26477V3.05592L6.25196 3.01746L6.01477 3.09646ZM6.01976 3.14142H5.76976V3.2004L5.79612 3.25316L6.01976 3.14142ZM6.02476 3.1614H5.77476V3.19216L5.78221 3.22199L6.02476 3.1614ZM6.02975 5.59911H5.77975V5.81695L5.99554 5.84676L6.02975 5.59911ZM22.9904 7.9419L22.9562 8.18955L22.9733 8.1919H22.9904V7.9419ZM23.0039 7.94504L23.0996 7.7141L23.0996 7.71409L23.0039 7.94504ZM23.0503 7.95189L22.9712 8.18905L23.0097 8.20189H23.0503V7.95189ZM23.0588 7.95375L22.9884 8.19366L22.9884 8.19366L23.0588 7.95375ZM23.1252 7.97187L23.0645 8.2144L23.0646 8.2144L23.1252 7.97187ZM23.1402 7.97687L23.2521 7.7533L23.2521 7.7533L23.1402 7.97687ZM23.1701 7.99186L23.0583 8.21543L23.0583 8.21543L23.1701 7.99186ZM23.2001 8.00684L23.312 7.78327L23.312 7.78327L23.2001 8.00684ZM23.23 8.02183L23.4069 7.84512L23.3782 7.81641L23.3419 7.79826L23.23 8.02183ZM23.2725 8.0493L23.1337 8.25724L23.1337 8.25727L23.2725 8.0493ZM23.2999 8.06678L23.45 7.86686L23.45 7.86684L23.2999 8.06678ZM23.3274 8.08677L23.1505 8.26344L23.1505 8.26349L23.3274 8.08677ZM23.3398 8.09676L23.5167 7.92005L23.488 7.89134L23.4517 7.87318L23.3398 8.09676ZM23.3648 8.12173L23.1879 8.29844L23.1933 8.30375L23.1989 8.30874L23.3648 8.12173ZM23.3674 8.12405L23.2015 8.31105L23.2073 8.3162L23.2134 8.32098L23.3674 8.12405ZM23.3704 8.12641L23.2164 8.32335L23.2182 8.3247L23.3704 8.12641ZM23.3848 8.14171L23.1611 8.25347L23.1611 8.25348L23.3848 8.14171ZM23.3947 8.1542L23.2179 8.33092L23.2179 8.33093L23.3947 8.1542ZM23.4147 8.17918L23.2378 8.35585L23.2379 8.3559L23.4147 8.17918ZM23.4247 8.19167L23.201 8.30337L23.2192 8.33967L23.2479 8.36838L23.4247 8.19167ZM23.4447 8.21664L23.6683 8.10494L23.6683 8.10491L23.4447 8.21664ZM23.4721 8.2591L23.2641 8.39774L23.2641 8.39775L23.4721 8.2591ZM23.4796 8.27159L23.2559 8.38329L23.256 8.38333L23.4796 8.27159ZM23.4946 8.30156L23.2709 8.4133L23.2891 8.44958L23.3177 8.47827L23.4946 8.30156ZM23.5095 8.32654L23.7467 8.24754L23.7411 8.23069L23.7332 8.21481L23.5095 8.32654ZM23.5245 8.36151L23.3009 8.47324L23.3009 8.47331L23.5245 8.36151ZM23.528 8.37062L23.7682 8.30138L23.7682 8.30136L23.528 8.37062ZM23.5295 8.37649L23.2869 8.43696L23.287 8.43706L23.5295 8.37649ZM23.5445 8.42145L23.7817 8.34248L23.7761 8.32563L23.7681 8.30975L23.5445 8.42145ZM23.549 8.4387L23.3048 8.49216L23.3048 8.49221L23.549 8.4387ZM23.5545 8.45642H23.8045V8.39743L23.7781 8.34466L23.5545 8.45642ZM23.557 8.4714L23.8003 8.41414L23.7995 8.41084L23.557 8.4714ZM23.557 8.47143L23.3136 8.52869L23.3144 8.532L23.557 8.47143ZM23.562 8.50384L23.8087 8.46272L23.8071 8.45485L23.562 8.50384ZM23.562 8.50387L23.3152 8.54499L23.3168 8.55285L23.562 8.50387ZM23.5645 8.52136H23.3145V8.58033L23.3408 8.63309L23.5645 8.52136ZM22.2218 14.241H21.9718V14.241L22.2218 14.241ZM22.2218 9.19073H22.4718V8.97283L22.2559 8.94307L22.2218 9.19073ZM6.02476 6.95783L6.0589 6.71017L5.77476 6.671V6.95783H6.02476ZM7.43232 17.2534H20.8142V16.7534H7.43232V17.2534ZM5.89839 16.8394C6.3451 17.1011 6.87274 17.2534 7.43232 17.2534V16.7534C6.96368 16.7534 6.523 16.6259 6.15113 16.408L5.89839 16.8394ZM6.27476 18.452V16.6237H5.77476V18.452H6.27476ZM7.43232 19.6107C6.7925 19.6107 6.27476 19.089 6.27476 18.452H5.77476C5.77476 19.3636 6.51484 20.1107 7.43232 20.1107V19.6107ZM20.1603 19.6107H7.43232V20.1107H20.1603V19.6107ZM23.1306 22.5831C23.1306 20.9466 21.796 19.6107 20.1603 19.6107V20.1107C21.5195 20.1107 22.6306 21.2224 22.6306 22.5831H23.1306ZM20.1603 25.5556C21.796 25.5556 23.1306 24.2196 23.1306 22.5831H22.6306C22.6306 23.9438 21.5195 25.0556 20.1603 25.0556V25.5556ZM17.19 22.5831C17.19 24.2249 18.525 25.5556 20.1603 25.5556V25.0556C18.8009 25.0556 17.69 23.9485 17.69 22.5831H17.19ZM17.5993 21.082C17.3372 21.5246 17.19 22.038 17.19 22.5831H17.69C17.69 22.1292 17.8124 21.7035 18.0295 21.3368L17.5993 21.082ZM11.7549 21.4594H17.8144V20.9594H11.7549V21.4594ZM12.3792 22.5831C12.3792 22.0387 12.2324 21.5197 11.9693 21.0809L11.5404 21.338C11.7565 21.6984 11.8792 22.1284 11.8792 22.5831H12.3792ZM9.40891 25.5556C11.0446 25.5556 12.3792 24.2196 12.3792 22.5831H11.8792C11.8792 23.9438 10.7681 25.0556 9.40891 25.0556V25.5556ZM6.43861 22.5831C6.43861 24.2249 7.77354 25.5556 9.40891 25.5556V25.0556C8.04945 25.0556 6.93861 23.9485 6.93861 22.5831H6.43861ZM6.86329 21.0563C6.597 21.5023 6.43861 22.0258 6.43861 22.5831H6.93861C6.93861 22.1214 7.06972 21.6858 7.29258 21.3126L6.86329 21.0563ZM4.42708 18.452C4.42708 19.9782 5.57038 21.2417 7.04589 21.4324L7.10998 20.9365C5.88016 20.7775 4.92708 19.7232 4.92708 18.452H4.42708ZM4.42708 14.256V18.452H4.92708V14.256H4.42708ZM4.42708 10.9341V14.256H4.92708V10.9341H4.42708ZM4.42708 7.21758V10.9341H4.92708V7.21758H4.42708ZM4.42708 6.73304V7.21758H4.92708V6.73304H4.42708ZM4.42708 3.67592V6.73304H4.92708V3.67592H4.42708ZM1.31546 2.52752L4.57982 3.90622L4.77435 3.44562L1.50999 2.06691L1.31546 2.52752ZM0.822847 1.31625C0.625006 1.78734 0.843338 2.32894 1.31579 2.52766L1.50965 2.06677C1.2933 1.97577 1.19218 1.72811 1.28384 1.50985L0.822847 1.31625ZM2.03375 0.822943C1.56262 0.624775 1.02133 0.843627 0.822847 1.31625L1.28384 1.50985C1.37486 1.29312 1.62221 1.19227 1.83989 1.28383L2.03375 0.822943ZM5.71246 2.37151L2.03381 0.82297L1.83982 1.2838L5.51847 2.83235L5.71246 2.37151ZM5.74951 2.38849C5.73704 2.38295 5.73128 2.38033 5.72733 2.37836L5.50359 2.8255C5.51962 2.83352 5.53631 2.84089 5.54631 2.84534L5.74951 2.38849ZM5.79222 2.40833C5.7762 2.40031 5.7595 2.39294 5.74951 2.38849L5.5463 2.84534C5.55877 2.85088 5.56454 2.8535 5.56848 2.85547L5.79222 2.40833ZM5.79971 2.41332C5.79731 2.41212 5.82816 2.42614 5.8572 2.45519L5.50351 2.80861C5.53753 2.84266 5.57338 2.85917 5.57597 2.86047L5.79971 2.41332ZM5.87217 2.46518C5.83815 2.43114 5.80232 2.41463 5.79971 2.41332L5.57597 2.86047C5.57834 2.86166 5.54751 2.84765 5.51848 2.8186L5.87217 2.46518ZM5.87401 2.45891C5.8655 2.45323 5.83466 2.43206 5.8072 2.41832L5.58345 2.86546C5.58106 2.86427 5.57931 2.86332 5.57833 2.86278C5.57732 2.86222 5.57672 2.86187 5.5766 2.86179C5.57646 2.86171 5.5772 2.86215 5.57913 2.86338C5.58332 2.86604 5.58849 2.86948 5.59651 2.87483L5.87401 2.45891ZM5.9003 2.47941C5.89725 2.47712 5.8986 2.47809 5.90047 2.47961C5.90292 2.48161 5.90714 2.4852 5.91211 2.49017L5.5584 2.84357C5.57764 2.86282 5.59623 2.87636 5.60016 2.8793L5.9003 2.47941ZM5.94206 2.51514C5.92283 2.4959 5.90423 2.48236 5.9003 2.47941L5.60016 2.8793C5.60321 2.8816 5.60187 2.88062 5.6 2.8791C5.59754 2.8771 5.59332 2.87351 5.58835 2.86855L5.94206 2.51514ZM5.91394 2.49138C5.91118 2.48954 5.9137 2.49117 5.91685 2.49347C5.91877 2.49486 5.92199 2.49726 5.92595 2.50051C5.92983 2.5037 5.93552 2.50861 5.94205 2.51514L5.58836 2.86855C5.60295 2.88316 5.61641 2.89321 5.6226 2.89771C5.62918 2.90251 5.63544 2.90664 5.63642 2.90729L5.91394 2.49138ZM5.91386 2.49133L5.91386 2.49132L5.63651 2.90735L5.63651 2.90735L5.91386 2.49133ZM5.91683 2.49333L5.91682 2.49333L5.63356 2.90535L5.63356 2.90535L5.91683 2.49333ZM5.96202 2.53013C5.94742 2.51552 5.93396 2.50546 5.92777 2.50096C5.92119 2.49617 5.91493 2.49204 5.91395 2.49139L5.63643 2.9073C5.6392 2.90914 5.63668 2.90751 5.63353 2.90521C5.63161 2.90381 5.62839 2.90141 5.62443 2.89816C5.62054 2.89497 5.61485 2.89007 5.60832 2.88354L5.96202 2.53013ZM5.99696 2.5601C5.9867 2.54983 5.96148 2.52392 5.92392 2.49887L5.64642 2.91479C5.64285 2.91241 5.63997 2.91004 5.63835 2.9086C5.63773 2.90806 5.63766 2.90796 5.63844 2.90872C5.63941 2.90966 5.64056 2.9108 5.64326 2.91351L5.99696 2.5601ZM6.01193 2.57508L5.99696 2.56009L5.64326 2.91351L5.65824 2.9285L6.01193 2.57508ZM6.04188 2.60505L6.01193 2.57508L5.65824 2.9285L5.68819 2.95847L6.04188 2.60505ZM6.05685 2.62004L6.04188 2.60505L5.68819 2.95847L5.70316 2.97345L6.05685 2.62004ZM6.09005 2.66181C6.08759 2.65853 6.08889 2.6602 6.09059 2.66269C6.09243 2.66536 6.09782 2.67334 6.10365 2.68501L5.65637 2.90848C5.67087 2.93752 5.6896 2.96121 5.68992 2.96164L6.09005 2.66181ZM6.08999 2.66173L6.08998 2.66173L5.68998 2.96173L5.68999 2.96173L6.08999 2.66173ZM6.12361 2.71498C6.1091 2.68594 6.09037 2.66224 6.09004 2.66181L5.68993 2.96166C5.69239 2.96494 5.6911 2.96327 5.68939 2.96078C5.68755 2.95811 5.68216 2.95013 5.67633 2.93845L6.12361 2.71498ZM6.11552 2.7006C6.113 2.69682 6.11842 2.70459 6.12361 2.71498L5.67633 2.93845C5.68651 2.95883 5.69693 2.9741 5.6994 2.97781L6.11552 2.7006ZM6.13859 2.73996C6.12841 2.71959 6.118 2.70433 6.11552 2.7006L5.6994 2.97781C5.70191 2.98158 5.69649 2.97381 5.69131 2.96343L6.13859 2.73996ZM6.13049 2.72558C6.12798 2.72181 6.1334 2.72958 6.13859 2.73996L5.69131 2.96343C5.70148 2.9838 5.71189 2.99906 5.71437 3.00278L6.13049 2.72558ZM6.15356 2.76493C6.14338 2.74456 6.13296 2.72929 6.13049 2.72558L5.71437 3.00278C5.71689 3.00657 5.71147 2.99879 5.70628 2.98841L6.15356 2.76493ZM6.17353 2.79491C6.16849 2.78483 6.14826 2.7415 6.10677 2.69996L5.75307 3.05338C5.74269 3.04298 5.735 3.03253 5.72973 3.02408C5.7256 3.01747 5.72307 3.01203 5.72625 3.01838L6.17353 2.79491ZM6.19207 2.83766C6.19194 2.83724 6.19063 2.83328 6.18904 2.82888C6.18736 2.82422 6.18452 2.81669 6.18047 2.80779C6.17284 2.79098 6.15692 2.76015 6.12673 2.72993L5.77304 3.08335C5.74535 3.05564 5.7313 3.02793 5.72523 3.01455C5.71961 3.00219 5.71622 2.99123 5.71768 2.99561L6.19207 2.83766ZM6.13671 2.74991C6.16441 2.77763 6.17845 2.80534 6.18453 2.81871C6.19013 2.83106 6.19353 2.84202 6.19207 2.83763L5.71769 2.99564C5.71782 2.99604 5.71913 3.00001 5.72072 3.0044C5.7224 3.00906 5.72524 3.01658 5.72928 3.02548C5.73692 3.04229 5.75283 3.07312 5.78302 3.10333L6.13671 2.74991ZM6.21702 2.88758C6.20411 2.84882 6.18854 2.81896 6.16793 2.78803L5.7518 3.06522C5.75329 3.06745 5.7511 3.06438 5.74808 3.05834C5.74659 3.05535 5.7453 3.05245 5.74425 3.04986C5.74325 3.04739 5.74271 3.0458 5.74265 3.04559L6.21702 2.88758ZM6.21952 2.89758C6.21836 2.8941 6.22012 2.89913 6.22182 2.90538C6.22281 2.90904 6.22455 2.91579 6.22612 2.92455C6.22759 2.93272 6.22983 2.94762 6.22983 2.96659H5.72983C5.72983 3.00249 5.73768 3.0305 5.73941 3.03684C5.74205 3.04652 5.74505 3.0553 5.74513 3.05556L6.21952 2.89758ZM6.22568 2.91932L6.22568 2.91931L5.73897 3.03383L5.73898 3.03384L6.22568 2.91932ZM6.23483 2.98657C6.23483 2.95066 6.22697 2.92264 6.22525 2.91631C6.22261 2.90662 6.21961 2.89784 6.21952 2.89757L5.74514 3.05558C5.7463 3.05906 5.74455 3.05403 5.74284 3.04777C5.74185 3.04412 5.74011 3.03737 5.73854 3.02861C5.73707 3.02044 5.73483 3.00553 5.73483 2.98657H6.23483ZM6.23699 2.95252L6.22201 2.90757L5.74764 3.06557L5.76261 3.11053L6.23699 2.95252ZM6.23948 2.96501C6.23827 2.96136 6.2498 2.99196 6.2498 3.03152H5.7498C5.7498 3.08108 5.76383 3.11917 5.76511 3.12302L6.23948 2.96501ZM6.25479 3.0565C6.25479 3.00694 6.24077 2.96886 6.23948 2.96501L5.76511 3.12302C5.76632 3.12666 5.75479 3.09607 5.75479 3.0565H6.25479ZM6.25494 3.02751C6.2537 3.0213 6.24991 3.00131 6.24198 2.9775L5.7676 3.1355C5.76466 3.12668 5.76337 3.11918 5.76463 3.12546L6.25494 3.02751ZM6.25196 3.01746C6.2549 3.02628 6.25619 3.03378 6.25493 3.02749L5.76463 3.12548C5.76587 3.13167 5.76966 3.15166 5.77759 3.17547L6.25196 3.01746ZM6.26387 3.07787C6.26353 3.07579 6.26342 3.07517 6.26336 3.07476C6.26332 3.07448 6.26345 3.07528 6.26363 3.07672C6.26397 3.07944 6.26477 3.08661 6.26477 3.09646H5.76477C5.76477 3.12815 5.77003 3.15619 5.77067 3.16001L6.26387 3.07787ZM6.26976 3.14142C6.26976 3.10973 6.26451 3.08169 6.26387 3.07787L5.77067 3.16001C5.77101 3.1621 5.77111 3.16272 5.77118 3.16313C5.77122 3.1634 5.77109 3.16261 5.77091 3.16117C5.77057 3.15845 5.76976 3.15127 5.76976 3.14142H6.26976ZM6.27476 3.1614C6.27476 3.15852 6.27522 3.13401 6.26928 3.10429C6.26337 3.07472 6.25344 3.04978 6.24341 3.02969L5.79612 3.25316C5.79108 3.24306 5.78364 3.22561 5.77898 3.20228C5.77429 3.17881 5.77476 3.15929 5.77476 3.1614H6.27476ZM6.27975 3.23133C6.27975 3.21603 6.28131 3.15689 6.2673 3.10081L5.78221 3.22199C5.78055 3.21535 5.77987 3.21062 5.77962 3.20866C5.77937 3.20665 5.77939 3.20611 5.77947 3.20762C5.77955 3.20912 5.77964 3.21166 5.77969 3.21584C5.77974 3.22016 5.77975 3.22481 5.77975 3.23133H6.27975ZM6.27975 3.23134V3.23133H5.77975V3.23134H6.27975ZM6.27975 5.59911V3.23134H5.77975V5.59911H6.27975ZM23.0247 7.69425L6.06396 5.35146L5.99554 5.84676L22.9562 8.18955L23.0247 7.69425ZM23.0996 7.71409C23.093 7.71135 23.0494 7.6919 22.9904 7.6919V8.1919C22.968 8.1919 22.948 8.18847 22.9315 8.1839C22.9169 8.17987 22.9055 8.17489 22.9081 8.17598L23.0996 7.71409ZM23.0104 7.6969C23.0438 7.6969 23.0694 7.70381 23.0824 7.7079C23.0938 7.71149 23.1032 7.7156 23.0996 7.7141L22.9081 8.17598C22.9082 8.17603 22.9112 8.17728 22.9146 8.17859C22.9182 8.18 22.9244 8.18234 22.9321 8.18478C22.9473 8.18955 22.975 8.1969 23.0104 8.1969V7.6969ZM23.1295 7.71474C23.0731 7.69593 23.0277 7.6969 23.0104 7.6969V8.1969C23.0148 8.1969 23.0152 8.19691 23.0149 8.1969C23.0141 8.19689 23.0106 8.19679 23.0055 8.19628C23.0001 8.19574 22.994 8.19485 22.9875 8.19345C22.981 8.19206 22.9755 8.19048 22.9712 8.18905L23.1295 7.71474ZM23.1291 7.71385C23.129 7.71383 23.121 7.71142 23.1123 7.70933C23.1055 7.70771 23.0813 7.70189 23.0503 7.70189V8.20189C23.0343 8.20189 23.0215 8.20029 23.0137 8.19908C23.0056 8.19783 22.9993 8.19641 22.9958 8.19556C22.9899 8.19415 22.9851 8.19267 22.9884 8.19366L23.1291 7.71385ZM23.0753 7.70689C23.096 7.70689 23.1118 7.70984 23.1196 7.71152C23.1269 7.7131 23.1326 7.71487 23.1291 7.71385L22.9884 8.19366C22.9898 8.19406 23.0008 8.19739 23.0137 8.20019C23.0271 8.20308 23.0487 8.20689 23.0753 8.20689V7.70689ZM23.2221 7.74331C23.198 7.73123 23.142 7.70689 23.0753 7.70689V8.20689C23.0582 8.20689 23.0452 8.20489 23.0382 8.2036C23.0306 8.2022 23.0247 8.20061 23.0209 8.19945C23.0139 8.19735 23.0067 8.19462 22.9984 8.19045L23.2221 7.74331ZM23.1859 7.72935C23.1823 7.72845 23.1868 7.72951 23.1923 7.73124C23.1989 7.73331 23.2096 7.73704 23.2221 7.74331L22.9984 8.19045C23.0315 8.20703 23.0625 8.21389 23.0645 8.2144L23.1859 7.72935ZM23.2521 7.7533C23.2189 7.73672 23.1879 7.72986 23.1859 7.72934L23.0646 8.2144C23.0681 8.2153 23.0636 8.21424 23.0581 8.21251C23.0515 8.21044 23.0408 8.20671 23.0283 8.20044L23.2521 7.7533ZM23.282 7.76829L23.2521 7.7533L23.0283 8.20044L23.0583 8.21543L23.282 7.76829ZM23.312 7.78327L23.282 7.76828L23.0583 8.21543L23.0882 8.23041L23.312 7.78327ZM23.3419 7.79826L23.312 7.78327L23.0882 8.23041L23.1182 8.2454L23.3419 7.79826ZM23.3719 7.81824C23.3655 7.81506 23.371 7.81759 23.3776 7.82174C23.386 7.82703 23.3965 7.83472 23.4069 7.84512L23.0532 8.19854C23.0947 8.24008 23.138 8.26034 23.1481 8.26538L23.3719 7.81824ZM23.4112 7.84136C23.4075 7.83886 23.3922 7.82844 23.3719 7.81824L23.1481 8.26538C23.1377 8.26018 23.1299 8.25474 23.1337 8.25724L23.4112 7.84136ZM23.3968 7.83322C23.4072 7.83842 23.415 7.84386 23.4112 7.84133L23.1337 8.25727C23.1374 8.25974 23.1527 8.27017 23.1731 8.28037L23.3968 7.83322ZM23.45 7.86684C23.4496 7.86652 23.4259 7.84776 23.3968 7.83322L23.1731 8.28037C23.1614 8.27452 23.1534 8.26912 23.1507 8.26728C23.1482 8.26557 23.1466 8.26427 23.1498 8.26673L23.45 7.86684ZM23.4268 7.8532C23.4384 7.85905 23.4464 7.86445 23.4491 7.86629C23.4516 7.86801 23.4533 7.86931 23.45 7.86686L23.1498 8.26671C23.1503 8.26705 23.174 8.28581 23.203 8.30035L23.4268 7.8532ZM23.5042 7.91009C23.5036 7.90941 23.4944 7.90008 23.4832 7.89052C23.4706 7.87991 23.4518 7.86575 23.4268 7.8532L23.203 8.30035C23.1829 8.2903 23.1685 8.27926 23.16 8.27209C23.1528 8.26596 23.1474 8.26038 23.1505 8.26344L23.5042 7.91009ZM23.4517 7.87318C23.4718 7.88323 23.4862 7.89427 23.4947 7.90144C23.5019 7.90755 23.5073 7.91313 23.5042 7.91005L23.1505 8.26349C23.1512 8.26415 23.1603 8.27347 23.1716 8.28302C23.1841 8.29363 23.2029 8.30778 23.228 8.32033L23.4517 7.87318ZM23.5416 7.94503L23.5167 7.92005L23.163 8.27346L23.1879 8.29844L23.5416 7.94503ZM23.5333 7.93704L23.5307 7.93473L23.1989 8.30874L23.2015 8.31105L23.5333 7.93704ZM23.5244 7.92948L23.5214 7.92712L23.2134 8.32098L23.2164 8.32334L23.5244 7.92948ZM23.6084 8.02996C23.5909 7.99501 23.5693 7.97022 23.5532 7.95434C23.5382 7.93972 23.5238 7.92895 23.5227 7.92812L23.2182 8.3247C23.222 8.32767 23.213 8.32107 23.2031 8.31141C23.192 8.30049 23.1751 8.28146 23.1611 8.25347L23.6084 8.02996ZM23.5716 7.97748C23.5685 7.97442 23.5741 7.97979 23.5802 7.98702C23.5874 7.9955 23.5984 8.0099 23.6084 8.02994L23.1611 8.25348C23.1737 8.27852 23.1878 8.29729 23.1984 8.30983C23.2079 8.32112 23.2172 8.33024 23.2179 8.33092L23.5716 7.97748ZM23.6284 8.05492C23.6158 8.02988 23.6017 8.01111 23.5911 7.99857C23.5816 7.98728 23.5723 7.97816 23.5716 7.97747L23.2179 8.33093C23.221 8.33399 23.2154 8.32862 23.2093 8.32138C23.2021 8.3129 23.1911 8.2985 23.1811 8.27846L23.6284 8.05492ZM23.5916 8.0025C23.5885 7.99942 23.5941 8.00479 23.6002 8.01201C23.6073 8.02048 23.6183 8.03488 23.6284 8.05492L23.1811 8.27846C23.1936 8.30349 23.2077 8.32227 23.2183 8.33479C23.2279 8.34607 23.2372 8.35519 23.2378 8.35585L23.5916 8.0025ZM23.6484 8.07997C23.6358 8.05488 23.6217 8.03608 23.6111 8.02354C23.6015 8.01225 23.5922 8.00312 23.5915 8.00246L23.2379 8.3559C23.241 8.35899 23.2354 8.3536 23.2293 8.34637C23.2221 8.33789 23.2111 8.32346 23.201 8.30337L23.6484 8.07997ZM23.6683 8.10491C23.643 8.05428 23.6101 8.02357 23.6015 8.01496L23.2479 8.36838C23.2508 8.37134 23.2511 8.37168 23.2511 8.37159C23.2507 8.37121 23.248 8.36843 23.2444 8.36413C23.2406 8.35947 23.2361 8.35361 23.2316 8.34667C23.2271 8.33979 23.2236 8.33352 23.221 8.32838L23.6683 8.10491ZM23.6547 8.08169C23.6522 8.07841 23.6535 8.08008 23.6552 8.08257C23.6571 8.08526 23.6625 8.09325 23.6683 8.10494L23.221 8.32834C23.2355 8.35742 23.2543 8.38114 23.2546 8.38157L23.6547 8.08169ZM23.6883 8.13491C23.6738 8.10584 23.655 8.08212 23.6547 8.08169L23.2546 8.38157C23.2571 8.38485 23.2558 8.38318 23.254 8.38068C23.2522 8.378 23.2468 8.37001 23.241 8.35832L23.6883 8.13491ZM23.6801 8.12047C23.6777 8.11674 23.6831 8.12451 23.6883 8.13491L23.241 8.35832C23.2512 8.37871 23.2616 8.39397 23.2641 8.39774L23.6801 8.12047ZM23.7033 8.15989C23.6931 8.1395 23.6827 8.12424 23.6801 8.12045L23.2641 8.39775C23.2666 8.40146 23.2611 8.39369 23.2559 8.38329L23.7033 8.15989ZM23.7182 8.18983L23.7032 8.15986L23.256 8.38333L23.2709 8.4133L23.7182 8.18983ZM23.7332 8.21481C23.7314 8.21132 23.7258 8.19976 23.7192 8.18821C23.7143 8.17969 23.6984 8.15189 23.6714 8.12485L23.3177 8.47827C23.3051 8.46566 23.297 8.45453 23.293 8.44886C23.2888 8.44271 23.286 8.43802 23.285 8.43614C23.2834 8.43334 23.2827 8.43177 23.2859 8.43827L23.7332 8.21481ZM23.7482 8.24977C23.7454 8.2443 23.7454 8.24413 23.7455 8.24443C23.746 8.2455 23.7465 8.24676 23.7467 8.24754L23.2724 8.40554C23.2833 8.43838 23.2951 8.46167 23.3009 8.47324L23.7482 8.24977ZM23.7682 8.30136C23.7648 8.28958 23.7588 8.27097 23.7481 8.2497L23.3009 8.47331C23.2933 8.45812 23.2894 8.44558 23.2878 8.43987L23.7682 8.30136ZM23.7721 8.31603C23.7718 8.31477 23.7702 8.30842 23.7682 8.30138L23.2878 8.43985C23.2869 8.43673 23.2863 8.4343 23.2869 8.43696L23.7721 8.31603ZM23.7582 8.27978C23.7644 8.29229 23.7681 8.30291 23.7702 8.30949C23.7719 8.31502 23.773 8.31951 23.7721 8.31592L23.287 8.43706C23.2875 8.43911 23.2943 8.47008 23.3108 8.50318L23.7582 8.27978ZM23.782 8.34581C23.7815 8.34383 23.7747 8.31286 23.7582 8.27978L23.3108 8.50318C23.3046 8.49067 23.3009 8.48006 23.2988 8.47349C23.2971 8.46798 23.2961 8.4635 23.297 8.46712L23.782 8.34581ZM23.7681 8.30975C23.7744 8.32226 23.7781 8.33288 23.7802 8.33945C23.7819 8.34495 23.7829 8.34943 23.782 8.34581L23.297 8.46712C23.2975 8.46909 23.3043 8.50007 23.3208 8.53315L23.7681 8.30975ZM23.7932 8.38524C23.7921 8.38008 23.7885 8.36289 23.7817 8.34248L23.3073 8.50042C23.3049 8.49315 23.3037 8.48718 23.3048 8.49216L23.7932 8.38524ZM23.7781 8.34466C23.7853 8.35901 23.7893 8.37133 23.7916 8.37903C23.7933 8.38509 23.7943 8.39002 23.7932 8.3852L23.3048 8.49221C23.3053 8.49423 23.3119 8.53032 23.3308 8.56818L23.7781 8.34466ZM23.7995 8.41084C23.7986 8.40706 23.7998 8.41182 23.801 8.41789C23.8023 8.42475 23.8045 8.43851 23.8045 8.45642H23.3045C23.3045 8.47932 23.3073 8.49807 23.3095 8.50993C23.3116 8.52099 23.3141 8.53075 23.3144 8.53197L23.7995 8.41084ZM23.8003 8.41417L23.8003 8.41414L23.3136 8.52866L23.3136 8.52869L23.8003 8.41417ZM23.8095 8.48639C23.8095 8.46349 23.8066 8.44474 23.8044 8.43288C23.8023 8.42182 23.7998 8.41207 23.7995 8.41085L23.3144 8.532C23.3154 8.53578 23.3141 8.53101 23.313 8.52494C23.3117 8.51807 23.3095 8.5043 23.3095 8.48639H23.8095ZM23.8071 8.45485C23.8063 8.45067 23.8067 8.4527 23.8072 8.45568C23.8075 8.45759 23.808 8.46114 23.8085 8.46583C23.8089 8.47042 23.8095 8.47753 23.8095 8.48639H23.3095C23.3095 8.50775 23.312 8.52519 23.3133 8.53361C23.3147 8.54252 23.3164 8.55077 23.3168 8.55283L23.8071 8.45485ZM23.8086 8.46277L23.8086 8.46274L23.3154 8.54494L23.3154 8.54497L23.8086 8.46277ZM23.8145 8.52136C23.8145 8.5 23.8119 8.48256 23.8106 8.47414C23.8092 8.46523 23.8075 8.45697 23.8071 8.4549L23.3168 8.55285C23.3176 8.55702 23.3172 8.55501 23.3167 8.55203C23.3164 8.55012 23.3159 8.54658 23.3154 8.5419C23.315 8.53731 23.3145 8.53021 23.3145 8.52136H23.8145ZM23.8194 8.55133C23.8194 8.54763 23.8231 8.47967 23.7881 8.40962L23.3408 8.63309C23.3278 8.6071 23.3228 8.5834 23.3207 8.56733C23.3191 8.55435 23.3194 8.5438 23.3194 8.55133H23.8194ZM23.8194 8.59129V8.55133H23.3194V8.59129H23.8194ZM23.8194 8.61127V8.59129H23.3194V8.61127H23.8194ZM23.8194 14.246V8.61127H23.3194V14.246H23.8194ZM20.8142 17.2534C22.4698 17.2534 23.8194 15.9024 23.8194 14.246H23.3194C23.3194 15.6267 22.1933 16.7534 20.8142 16.7534V17.2534ZM10.5365 22.5781C10.5365 23.1989 10.0299 23.7018 9.4139 23.7018V24.2018C10.3053 24.2018 11.0365 23.4759 11.0365 22.5781H10.5365ZM9.4139 21.4544C10.0299 21.4544 10.5365 21.9573 10.5365 22.5781H11.0365C11.0365 21.6804 10.3053 20.9544 9.4139 20.9544V21.4544ZM8.29127 22.5781C8.29127 21.9617 8.79846 21.4544 9.4139 21.4544V20.9544C8.52195 20.9544 7.79127 21.6859 7.79127 22.5781H8.29127ZM9.4139 23.7018C8.79846 23.7018 8.29127 23.1945 8.29127 22.5781H7.79127C7.79127 23.4703 8.52195 24.2018 9.4139 24.2018V23.7018ZM20.1653 24.2018C21.0567 24.2018 21.788 23.4759 21.788 22.5781H21.288C21.288 23.1989 20.7814 23.7018 20.1653 23.7018V24.2018ZM18.5427 22.5781C18.5427 23.4703 19.2734 24.2018 20.1653 24.2018V23.7018C19.5499 23.7018 19.0427 23.1945 19.0427 22.5781H18.5427ZM20.1653 20.9544C19.2734 20.9544 18.5427 21.6859 18.5427 22.5781H19.0427C19.0427 21.9617 19.5499 21.4544 20.1653 21.4544V20.9544ZM21.788 22.5781C21.788 21.6804 21.0567 20.9544 20.1653 20.9544V21.4544C20.7814 21.4544 21.288 21.9573 21.288 22.5781H21.788ZM20.8142 15.4046H7.43232V15.9046H20.8142V15.4046ZM21.9718 14.241C21.9718 14.8873 21.4496 15.4046 20.8142 15.4046V15.9046C21.7261 15.9046 22.4718 15.1631 22.4718 14.241L21.9718 14.241ZM21.9718 9.19073V14.241H22.4718V9.19073H21.9718ZM5.99061 7.20549L22.1876 9.43838L22.2559 8.94307L6.0589 6.71017L5.99061 7.20549ZM6.27476 7.20759V6.95783H5.77476V7.20759H6.27476ZM6.27476 10.9241V7.20759H5.77476V10.9241H6.27476ZM6.27476 14.246V10.9241H5.77476V14.246H6.27476ZM7.43232 15.4046C6.7925 15.4046 6.27476 14.8829 6.27476 14.246H5.77476C5.77476 15.1575 6.51484 15.9046 7.43232 15.9046V15.4046Z" fill="#6E7FAA"/>
</svg>
