<svg width="17" height="18" viewBox="0 0 17 18" fill="none" xmlns="http://www.w3.org/2000/svg">
<path fill-rule="evenodd" clip-rule="evenodd" d="M2.98843 1.08186C3.17176 0.972714 3.399 0.972714 3.58233 1.08186C3.75155 1.18261 3.85889 1.36179 3.8707 1.55824L3.87164 1.60768V3.1815C4.87242 3.44611 5.57076 4.3624 5.57076 5.41094C5.57076 6.43189 4.90869 7.32746 3.95001 7.61814L3.87164 7.64038V16.0762C3.86457 16.3993 3.60417 16.6575 3.28538 16.6575C2.98253 16.6575 2.73238 16.4245 2.70206 16.1242L2.69912 16.0762V7.64038C1.69834 7.37578 1 6.45948 1 5.41094C1 4.39 1.66207 3.49442 2.62075 3.20374L2.69912 3.1815V1.60768C2.69441 1.3922 2.80511 1.191 2.98843 1.08186ZM9.08313 1.71734C9.05282 1.41701 8.80267 1.18398 8.49981 1.18398C8.18102 1.18398 7.92063 1.44218 7.91356 1.7653V9.94175L7.83519 9.96398C6.8765 10.2547 6.21443 11.1502 6.21443 12.1712C6.21443 13.2197 6.91277 14.136 7.91356 14.4006V16.2335L7.91649 16.2815C7.94681 16.5818 8.19696 16.8148 8.49981 16.8148C8.81861 16.8148 9.079 16.5566 9.08607 16.2335V14.4003L9.16441 14.3781C10.1227 14.087 10.7843 13.1916 10.7843 12.1709C10.7843 11.1226 10.0865 10.2065 9.08607 9.94146V1.7653L9.08313 1.71734ZM14.2979 1.87525C14.2675 1.57492 14.0174 1.34189 13.7145 1.34189C13.3957 1.34189 13.1354 1.60009 13.1283 1.92321V3.49703L13.0499 3.5193C12.0915 3.81039 11.4298 4.70595 11.4298 5.72676C11.4298 6.77516 12.1278 7.69144 13.1283 7.95649V16.3923L13.1292 16.4418C13.141 16.6382 13.2484 16.8174 13.4176 16.9181C13.6009 17.0273 13.8282 17.0273 14.0115 16.9181C14.1948 16.809 14.3055 16.6078 14.3008 16.3923V7.95649L14.379 7.93401C15.3359 7.64039 15.9967 6.74642 16 5.72647C15.9965 4.67913 15.2996 3.76475 14.3008 3.49703V1.92321L14.2979 1.87525ZM7.71382 11.3741C8.03187 11.0518 8.5101 10.9555 8.92548 11.1301C9.34086 11.3048 9.61156 11.7159 9.61132 12.1718C9.61037 12.7937 9.11313 13.2975 8.49967 13.2982C8.05 13.2982 7.64461 13.0235 7.47258 12.6023C7.30056 12.1811 7.39577 11.6963 7.71382 11.3741ZM13.7146 4.59947C13.1006 4.59952 12.6028 5.10415 12.6027 5.72666C12.6027 6.34917 13.1004 6.85389 13.7144 6.85405C14.3283 6.85308 14.8257 6.34881 14.8266 5.72647C14.8265 5.10396 14.3286 4.59941 13.7146 4.59947ZM2.49797 4.61513C2.81575 4.29238 3.29404 4.19552 3.70974 4.36974C4.12543 4.54395 4.39665 4.95491 4.39689 5.41094C4.39641 6.03285 3.89983 6.53721 3.28639 6.53882C2.83657 6.53941 2.43071 6.26519 2.25812 5.84407C2.08552 5.42295 2.18019 4.93789 2.49797 4.61513Z" fill="#B6BED4"/>
<path d="M3.58233 1.08186L3.71022 0.867047L3.71022 0.867047L3.58233 1.08186ZM2.98843 1.08186L3.11632 1.29667L2.98843 1.08186ZM3.8707 1.55824L4.12086 1.55348L4.12024 1.54325L3.8707 1.55824ZM3.87164 1.60768H4.12168L4.12159 1.60292L3.87164 1.60768ZM3.87164 3.1815H3.62164V3.374L3.80773 3.4232L3.87164 3.1815ZM3.95001 7.61814L4.01825 7.85869L4.02255 7.85739L3.95001 7.61814ZM3.87164 7.64038L3.80341 7.39987L3.62164 7.45143V7.64038H3.87164ZM3.87164 16.0762L4.12164 16.0817V16.0762H3.87164ZM2.70206 16.1242L2.45233 16.1395L2.45332 16.1493L2.70206 16.1242ZM2.69912 16.0762H2.44912V16.0839L2.44959 16.0915L2.69912 16.0762ZM2.69912 7.64038H2.94912V7.44789L2.76303 7.39868L2.69912 7.64038ZM2.62075 3.20374L2.55251 2.96319L2.54821 2.96449L2.62075 3.20374ZM2.69912 3.1815L2.76735 3.42201L2.94912 3.37045V3.1815H2.69912ZM2.69912 1.60768H2.94918L2.94906 1.60221L2.69912 1.60768ZM9.08313 1.71734L9.33286 1.70205L9.33187 1.69223L9.08313 1.71734ZM7.91356 1.7653L7.66356 1.75983V1.7653H7.91356ZM7.91356 9.94175L7.98179 10.1823L8.16356 10.1307V9.94175H7.91356ZM7.83519 9.96398L7.76694 9.72344L7.76264 9.72474L7.83519 9.96398ZM7.91356 14.4006H8.16356V14.2081L7.97746 14.1589L7.91356 14.4006ZM7.91356 16.2335H7.66356V16.2412L7.66403 16.2488L7.91356 16.2335ZM7.91649 16.2815L7.66677 16.2968L7.66776 16.3066L7.91649 16.2815ZM9.08607 16.2335L9.33607 16.239V16.2335H9.08607ZM9.08607 14.4003L9.01772 14.1599L8.83607 14.2115V14.4003H9.08607ZM9.16441 14.3781L9.23277 14.6186L9.23707 14.6173L9.16441 14.3781ZM9.08607 9.94146H8.83607V10.1339L9.02205 10.1831L9.08607 9.94146ZM9.08607 1.7653H9.33607V1.75765L9.3356 1.75002L9.08607 1.7653ZM14.2979 1.87525L14.5476 1.85996L14.5466 1.85014L14.2979 1.87525ZM13.1283 1.92321L12.8783 1.91774V1.92321H13.1283ZM13.1283 3.49703L13.1966 3.73751L13.3783 3.68588V3.49703H13.1283ZM13.0499 3.5193L12.9816 3.27878L12.9773 3.28009L13.0499 3.5193ZM13.1283 7.95649H13.3783V7.76409L13.1923 7.71482L13.1283 7.95649ZM13.1283 16.3923H12.8782L12.8783 16.3971L13.1283 16.3923ZM13.1292 16.4418L12.8791 16.4465L12.8797 16.4568L13.1292 16.4418ZM13.4176 16.9181L13.5455 16.7033L13.5455 16.7033L13.4176 16.9181ZM14.0115 16.9181L13.8836 16.7033L13.8836 16.7033L14.0115 16.9181ZM14.3008 16.3923H14.0507L14.0509 16.3978L14.3008 16.3923ZM14.3008 7.95649L14.2317 7.71621L14.0508 7.76822V7.95649H14.3008ZM14.379 7.93401L14.4481 8.17432L14.4524 8.17301L14.379 7.93401ZM16 5.72647L16.25 5.72727L16.25 5.72562L16 5.72647ZM14.3008 3.49703H14.0508V3.68884L14.2361 3.7385L14.3008 3.49703ZM14.3008 1.92321H14.5508V1.91556L14.5503 1.90793L14.3008 1.92321ZM7.71382 11.3741L7.89176 11.5497L7.71382 11.3741ZM9.61132 12.1718L9.86132 12.1722V12.1719L9.61132 12.1718ZM8.49967 13.2982V13.5482H8.49993L8.49967 13.2982ZM12.6027 5.72666L12.8527 5.72668L12.6027 5.72666ZM13.7146 4.59947L13.7146 4.34947L13.7146 4.59947ZM13.7144 6.85405L13.7143 7.10405L13.7148 7.10405L13.7144 6.85405ZM14.8266 5.72647L15.0766 5.72685V5.7264L14.8266 5.72647ZM2.49797 4.61513L2.67612 4.79053L2.49797 4.61513ZM4.39689 5.41094L4.64689 5.41113L4.64689 5.41081L4.39689 5.41094ZM3.28639 6.53882L3.28672 6.78882L3.28705 6.78882L3.28639 6.53882ZM2.25812 5.84407L2.48944 5.74926L2.25812 5.84407ZM3.71022 0.867047C3.44808 0.710984 3.12268 0.710984 2.86054 0.867047L3.11632 1.29667C3.22085 1.23444 3.34992 1.23444 3.45444 1.29667L3.71022 0.867047ZM4.12024 1.54325C4.10356 1.2656 3.95182 1.01089 3.71022 0.867047L3.45444 1.29667C3.55129 1.35433 3.61422 1.45798 3.62115 1.57324L4.12024 1.54325ZM4.12159 1.60292L4.12065 1.55348L3.62074 1.563L3.62168 1.61244L4.12159 1.60292ZM4.12164 3.1815V1.60768H3.62164V3.1815H4.12164ZM5.82076 5.41094C5.82076 4.25103 5.04802 3.23394 3.93554 2.93981L3.80773 3.4232C4.69683 3.65827 5.32076 4.47378 5.32076 5.41094H5.82076ZM4.02255 7.85739C5.08817 7.53428 5.82076 6.5404 5.82076 5.41094H5.32076C5.32076 6.32337 4.72922 7.12064 3.87747 7.3789L4.02255 7.85739ZM3.93987 7.88089L4.01824 7.85865L3.88178 7.37763L3.80341 7.39987L3.93987 7.88089ZM4.12164 16.0762V7.64038H3.62164V16.0762H4.12164ZM3.28538 16.9075C3.74323 16.9075 4.1116 16.5376 4.12158 16.0817L3.6217 16.0707C3.61753 16.2611 3.46512 16.4075 3.28538 16.4075V16.9075ZM2.45332 16.1493C2.49615 16.5735 2.85042 16.9075 3.28538 16.9075V16.4075C3.11463 16.4075 2.9686 16.2755 2.9508 16.0991L2.45332 16.1493ZM2.44959 16.0915L2.45253 16.1394L2.95159 16.1089L2.94866 16.0609L2.44959 16.0915ZM2.44912 7.64038V16.0762H2.94912V7.64038H2.44912ZM0.75 5.41094C0.75 6.57085 1.52274 7.58794 2.63522 7.88207L2.76303 7.39868C1.87394 7.16361 1.25 6.3481 1.25 5.41094H0.75ZM2.54821 2.96449C1.48259 3.2876 0.75 4.28148 0.75 5.41094H1.25C1.25 4.49851 1.84154 3.70124 2.69329 3.44298L2.54821 2.96449ZM2.63089 2.941L2.55252 2.96323L2.68898 3.44425L2.76735 3.42201L2.63089 2.941ZM2.44912 1.60768V3.1815H2.94912V1.60768H2.44912ZM2.86054 0.867047C2.59884 1.02285 2.44252 1.30876 2.44918 1.61315L2.94906 1.60221C2.94629 1.47564 3.01137 1.35916 3.11632 1.29667L2.86054 0.867047ZM8.49981 1.43398C8.67056 1.43398 8.81659 1.56605 8.8344 1.74245L9.33187 1.69223C9.28904 1.26797 8.93477 0.933985 8.49981 0.933985V1.43398ZM8.1635 1.77077C8.16766 1.58042 8.32008 1.43398 8.49981 1.43398V0.933985C8.04197 0.933985 7.67359 1.30394 7.66362 1.75983L8.1635 1.77077ZM8.16356 9.94175V1.7653H7.66356V9.94175H8.16356ZM7.90342 10.2045L7.98179 10.1823L7.84533 9.70124L7.76695 9.72347L7.90342 10.2045ZM6.46443 12.1712C6.46443 11.2588 7.05598 10.4615 7.90773 10.2032L7.76264 9.72474C6.69703 10.0478 5.96443 11.0417 5.96443 12.1712H6.46443ZM7.97746 14.1589C7.08837 13.9239 6.46443 13.1083 6.46443 12.1712H5.96443C5.96443 13.3311 6.73718 14.3482 7.84966 14.6423L7.97746 14.1589ZM8.16356 16.2335V14.4006H7.66356V16.2335H8.16356ZM8.16603 16.2662L8.16309 16.2183L7.66403 16.2488L7.66696 16.2968L8.16603 16.2662ZM8.49981 16.5648C8.32907 16.5648 8.18304 16.4328 8.16523 16.2564L7.66776 16.3066C7.71059 16.7309 8.06486 17.0648 8.49981 17.0648V16.5648ZM8.83613 16.2281C8.83197 16.4184 8.67955 16.5648 8.49981 16.5648V17.0648C8.95766 17.0648 9.32604 16.6949 9.33601 16.239L8.83613 16.2281ZM8.83607 14.4003V16.2335H9.33607V14.4003H8.83607ZM9.09607 14.1376L9.01772 14.1599L9.15442 14.6408L9.23276 14.6185L9.09607 14.1376ZM10.5343 12.1709C10.5343 13.0831 9.94318 13.8802 9.09176 14.1389L9.23707 14.6173C10.3022 14.2937 11.0343 13.3 11.0343 12.1709H10.5343ZM9.02205 10.1831C9.9108 10.4186 10.5343 11.234 10.5343 12.1709H11.0343C11.0343 11.0113 10.2621 9.99439 9.15009 9.69979L9.02205 10.1831ZM8.83607 1.7653V9.94146H9.33607V1.7653H8.83607ZM8.8336 1.73262L8.83654 1.78058L9.3356 1.75002L9.33267 1.70206L8.8336 1.73262ZM13.7145 1.59189C13.8853 1.59189 14.0313 1.72395 14.0491 1.90036L14.5466 1.85014C14.5038 1.42588 14.1495 1.09189 13.7145 1.09189V1.59189ZM13.3782 1.92868C13.3824 1.73833 13.5348 1.59189 13.7145 1.59189V1.09189C13.2567 1.09189 12.8883 1.46185 12.8783 1.91774L13.3782 1.92868ZM13.3783 3.49703V1.92321H12.8783V3.49703H13.3783ZM13.1183 3.75977L13.1966 3.73751L13.0599 3.25655L12.9816 3.27882L13.1183 3.75977ZM11.6798 5.72676C11.6798 4.81442 12.271 4.01714 13.1226 3.75851L12.9773 3.28009C11.912 3.60364 11.1798 4.59748 11.1798 5.72676H11.6798ZM13.1923 7.71482C12.3034 7.47935 11.6798 6.66383 11.6798 5.72676H11.1798C11.1798 6.88649 11.9521 7.90354 13.0643 8.19815L13.1923 7.71482ZM13.3783 16.3923V7.95649H12.8783V16.3923H13.3783ZM13.3792 16.437L13.3782 16.3876L12.8783 16.3971L12.8793 16.4465L13.3792 16.437ZM13.5455 16.7033C13.4486 16.6457 13.3857 16.542 13.3788 16.4268L12.8797 16.4568C12.8964 16.7344 13.0481 16.9891 13.2897 17.133L13.5455 16.7033ZM13.8836 16.7033C13.7791 16.7656 13.65 16.7656 13.5455 16.7033L13.2897 17.133C13.5518 17.289 13.8772 17.289 14.1394 17.133L13.8836 16.7033ZM14.0509 16.3978C14.0536 16.5244 13.9885 16.6408 13.8836 16.7033L14.1394 17.133C14.4011 16.9771 14.5574 16.6912 14.5507 16.3868L14.0509 16.3978ZM14.0508 7.95649V16.3923H14.5508V7.95649H14.0508ZM14.31 7.69373L14.2317 7.71621L14.3698 8.19676L14.4481 8.17428L14.31 7.69373ZM15.75 5.72566C15.7471 6.63769 15.1563 7.43399 14.3057 7.695L14.4524 8.17301C15.5155 7.8468 16.2464 6.85515 16.25 5.72727L15.75 5.72566ZM14.2361 3.7385C15.1239 3.97648 15.7468 4.79074 15.75 5.72731L16.25 5.72562C16.2461 4.56752 15.4752 3.55302 14.3655 3.25555L14.2361 3.7385ZM14.0508 1.92321V3.49703H14.5508V1.92321H14.0508ZM14.0483 1.89053L14.0513 1.93848L14.5503 1.90793L14.5474 1.85997L14.0483 1.89053ZM9.02237 10.8997C8.51217 10.6852 7.92525 10.8039 7.53588 11.1985L7.89176 11.5497C8.13849 11.2997 8.50804 11.2258 8.8286 11.3606L9.02237 10.8997ZM9.86132 12.1719C9.86161 11.6169 9.53199 11.1139 9.02237 10.8997L8.8286 11.3606C9.14973 11.4956 9.3615 11.8149 9.36132 12.1716L9.86132 12.1719ZM8.49993 13.5482C9.25442 13.5474 9.86016 12.9287 9.86132 12.1722L9.36132 12.1714C9.36058 12.6587 8.97184 13.0477 8.49941 13.0482L8.49993 13.5482ZM7.24114 12.6969C7.45097 13.2106 7.94685 13.5482 8.49967 13.5482V13.0482C8.15314 13.0482 7.83825 12.8365 7.70402 12.5078L7.24114 12.6969ZM7.53588 11.1985C7.1471 11.5924 7.03152 12.1836 7.24114 12.6969L7.70402 12.5078C7.56959 12.1787 7.64444 11.8003 7.89176 11.5497L7.53588 11.1985ZM12.8527 5.72668C12.8528 5.23898 13.2419 4.84951 13.7146 4.84947L13.7146 4.34947C12.9593 4.34953 12.3528 4.96932 12.3527 5.72664L12.8527 5.72668ZM13.7145 6.60405C13.2417 6.60393 12.8527 6.21438 12.8527 5.72668L12.3527 5.72664C12.3527 6.48396 12.959 7.10385 13.7143 7.10405L13.7145 6.60405ZM14.5766 5.72608C14.5759 6.21389 14.1869 6.60331 13.714 6.60405L13.7148 7.10405C14.4696 7.10286 15.0755 6.48374 15.0766 5.72685L14.5766 5.72608ZM13.7146 4.84947C14.1874 4.84942 14.5765 5.23883 14.5766 5.72653L15.0766 5.7264C15.0764 4.96908 14.4699 4.3494 13.7146 4.34947L13.7146 4.84947ZM3.80636 4.13917C3.29579 3.92519 2.70884 4.04463 2.31983 4.43974L2.67612 4.79053C2.92266 4.54013 3.29228 4.46585 3.61311 4.60031L3.80636 4.13917ZM4.64689 5.41081C4.6466 4.85565 4.31636 4.3529 3.80636 4.13917L3.61311 4.60031C3.93451 4.735 4.1467 5.05417 4.14689 5.41107L4.64689 5.41081ZM3.28705 6.78882C4.04143 6.78684 4.64631 6.16756 4.64689 5.41113L4.14689 5.41075C4.14652 5.89815 3.75823 6.28758 3.28573 6.28882L3.28705 6.78882ZM2.02679 5.93888C2.23731 6.45252 2.73375 6.78954 3.28672 6.78882L3.28606 6.28882C2.9394 6.28927 2.62412 6.07786 2.48944 5.74926L2.02679 5.93888ZM2.31983 4.43974C1.9314 4.83425 1.81649 5.42575 2.02679 5.93888L2.48944 5.74926C2.35456 5.42015 2.42899 5.04153 2.67612 4.79053L2.31983 4.43974Z" fill="#B6BED4"/>
</svg>
