<svg width="28" height="26" viewBox="0 0 28 26" fill="none" xmlns="http://www.w3.org/2000/svg">
<path d="M14.4285 1.19334L15.0407 0.460458L15.032 0.453332L14.4285 1.19334ZM13.3431 1.19334L12.7396 0.45328L12.7309 0.460518L13.3431 1.19334ZM1.34813 11.2133L0.735966 10.4805L0.732297 10.4836L1.34813 11.2133ZM1.23402 12.4157L0.49165 13.0163L0.505525 13.0334L0.520177 13.0499L1.23402 12.4157ZM2.43356 12.5301L3.015 13.2875L3.0292 13.2766L3.04299 13.2652L2.43356 12.5301ZM4.74704 10.6121H5.7019V8.58016L4.13761 9.87704L4.74704 10.6121ZM22.9964 10.6121L23.6058 9.87704L22.0416 8.58016V10.6121H22.9964ZM25.3099 12.5301L25.9425 11.8149L25.9311 11.8048L25.9193 11.795L25.3099 12.5301ZM25.8526 12.7306L25.848 11.7757L25.8367 11.7759L25.8526 12.7306ZM26.5094 12.4168L25.8218 11.7543L25.7946 11.7825L25.7698 11.8129L26.5094 12.4168ZM11.8872 22.8364H10.9323V23.7913H11.8872V22.8364ZM11.8872 16.8244H12.842V16.8156L12.8419 16.8069L11.8872 16.8244ZM12.744 15.9654L12.7265 16.9201L12.7353 16.9203H12.744V15.9654ZM15.0286 15.9654V16.9203H15.0374L15.0462 16.9201L15.0286 15.9654ZM15.8855 16.8244L14.9308 16.8069L14.9306 16.8156V16.8244H15.8855ZM15.8855 22.8364V23.7913H16.8404V22.8364H15.8855ZM27.036 10.4805L15.0407 0.460509L13.8164 1.92616L25.8117 11.9462L27.036 10.4805ZM15.032 0.453332C14.3646 -0.0909253 13.4071 -0.0909253 12.7397 0.453332L13.9466 1.93334C13.9114 1.96204 13.8603 1.96204 13.8251 1.93334L15.032 0.453332ZM12.7309 0.460518L0.735974 10.4805L1.96029 11.9462L13.9553 1.92615L12.7309 0.460518ZM0.732297 10.4836C-0.0237224 11.1216 -0.130155 12.2476 0.49165 13.0163L1.9764 11.8152C2.0077 11.8539 2.00277 11.9103 1.96397 11.9431L0.732297 10.4836ZM0.520177 13.0499C1.16087 13.7711 2.24939 13.8753 3.015 13.2875L1.85211 11.7727C1.88161 11.7501 1.92379 11.7545 1.94787 11.7816L0.520177 13.0499ZM3.04299 13.2652L5.35647 11.3472L4.13761 9.87704L1.82413 11.795L3.04299 13.2652ZM3.79218 10.6121V21.1472H5.7019V10.6121H3.79218ZM3.79218 21.1472C3.79218 23.6674 5.98261 25.566 8.5168 25.566V23.6562C6.88115 23.6562 5.7019 22.463 5.7019 21.1472H3.79218ZM8.5168 25.566H19.2267V23.6562H8.5168V25.566ZM19.2267 25.566C21.7608 25.566 23.9513 23.6674 23.9513 21.1472H22.0416C22.0416 22.463 20.8623 23.6562 19.2267 23.6562V25.566ZM23.9513 21.1472V10.6121H22.0416V21.1472H23.9513ZM22.387 11.3472L24.7005 13.2652L25.9193 11.795L23.6058 9.87704L22.387 11.3472ZM24.6773 13.2454C25.0054 13.5356 25.4303 13.6927 25.8686 13.6854L25.8367 11.7759C25.8759 11.7753 25.9136 11.7894 25.9425 11.8149L24.6773 13.2454ZM25.8572 13.6855C26.3975 13.6829 26.9077 13.4387 27.249 13.0207L25.7698 11.8129C25.7885 11.7899 25.8171 11.7759 25.848 11.7758L25.8572 13.6855ZM27.1971 13.0793C27.5446 12.7186 27.7223 12.2273 27.6868 11.7282L25.7819 11.8637C25.7791 11.8237 25.7933 11.7839 25.8218 11.7543L27.1971 13.0793ZM27.6868 11.7282C27.6513 11.229 27.4058 10.7679 27.0106 10.46L25.8371 11.9667C25.8045 11.9412 25.7848 11.9037 25.7819 11.8637L27.6868 11.7282ZM12.842 22.8364V16.8244H10.9323V22.8364H12.842ZM12.8419 16.8069C12.8424 16.8363 12.831 16.8652 12.8095 16.8868L11.4575 15.538C11.1128 15.8836 10.9235 16.3543 10.9325 16.8419L12.8419 16.8069ZM12.8095 16.8868C12.7879 16.9084 12.758 16.9207 12.7265 16.9201L12.7616 15.0107C12.273 15.0018 11.8023 15.1924 11.4575 15.538L12.8095 16.8868ZM12.744 16.9203H15.0286V15.0106H12.744V16.9203ZM15.0462 16.9201C15.0147 16.9207 14.9847 16.9084 14.9632 16.8868L16.3152 15.538C15.9704 15.1924 15.4996 15.0018 15.0111 15.0107L15.0462 16.9201ZM14.9632 16.8868C14.9417 16.8652 14.9303 16.8363 14.9308 16.8069L16.8402 16.8419C16.8491 16.3543 16.6599 15.8836 16.3152 15.538L14.9632 16.8868ZM14.9306 16.8244V22.8364H16.8404V16.8244H14.9306ZM15.8855 21.8816H11.8872V23.7913H15.8855V21.8816Z" fill="#6E7FAA"/>
</svg>
