<svg width="22" height="22" viewBox="0 0 22 22" fill="none" xmlns="http://www.w3.org/2000/svg">
<path fill-rule="evenodd" clip-rule="evenodd" d="M7.59653 0H2.54409C1.14129 0 0 1.14129 0 2.54409V7.59653C0 8.99933 1.14129 10.1406 2.54409 10.1406H7.59653C8.99933 10.1406 10.1406 8.99933 10.1406 7.59653V2.54409C10.1406 1.14129 8.99933 0 7.59653 0ZM8.42188 7.59653C8.42188 8.05161 8.05161 8.42188 7.59653 8.42188H2.54409C2.08901 8.42188 1.71875 8.05161 1.71875 7.59653V2.54409C1.71875 2.08901 2.08901 1.71875 2.54409 1.71875H7.59653C8.05161 1.71875 8.42188 2.08901 8.42188 2.54409V7.59653ZM19.4219 0H14.4375C13.0159 0 11.8594 1.15655 11.8594 2.57812V7.5625C11.8594 8.98408 13.0159 10.1406 14.4375 10.1406H19.4219C20.8435 10.1406 22 8.98408 22 7.5625V2.57812C22 1.15655 20.8435 0 19.4219 0ZM20.2812 7.5625C20.2812 8.03636 19.8957 8.42188 19.4219 8.42188H14.4375C13.9636 8.42188 13.5781 8.03636 13.5781 7.5625V2.57812C13.5781 2.10427 13.9636 1.71875 14.4375 1.71875H19.4219C19.8957 1.71875 20.2812 2.10427 20.2812 2.57812V7.5625ZM2.54409 11.8594H7.59653C8.99933 11.8594 10.1406 13.0007 10.1406 14.4035V19.4559C10.1406 20.8587 8.99933 22 7.59653 22H2.54409C1.14129 22 0 20.8587 0 19.4559V14.4035C0 13.0007 1.14129 11.8594 2.54409 11.8594ZM7.59653 20.2812C8.05161 20.2812 8.42188 19.911 8.42188 19.4559V14.4035C8.42188 13.9484 8.05161 13.5781 7.59653 13.5781H2.54409C2.08901 13.5781 1.71875 13.9484 1.71875 14.4035V19.4559C1.71875 19.911 2.08901 20.2812 2.54409 20.2812H7.59653ZM19.4219 11.8594H14.4375C13.0159 11.8594 11.8594 13.0159 11.8594 14.4375V19.4219C11.8594 20.8435 13.0159 22 14.4375 22H19.4219C20.8435 22 22 20.8435 22 19.4219V14.4375C22 13.0159 20.8435 11.8594 19.4219 11.8594ZM20.2812 19.4219C20.2812 19.8957 19.8957 20.2812 19.4219 20.2812H14.4375C13.9636 20.2812 13.5781 19.8957 13.5781 19.4219V14.4375C13.5781 13.9636 13.9636 13.5781 14.4375 13.5781H19.4219C19.8957 13.5781 20.2812 13.9636 20.2812 14.4375V19.4219Z" fill="#6E7FAA"/>
</svg>
