<svg width="24" height="25" viewBox="0 0 24 25" fill="none" xmlns="http://www.w3.org/2000/svg">
<path fill-rule="evenodd" clip-rule="evenodd" d="M12.5 2.5C8.71693 2.5 5.65 5.56735 5.65 9.3513V14.6022C5.65 15.646 5.21202 16.5874 4.50983 17.2528H20.4902C19.788 16.5874 19.35 15.646 19.35 14.6022V9.3513C19.35 5.56735 16.2831 2.5 12.5 2.5ZM23 17.2528C21.5365 17.2528 20.35 16.0662 20.35 14.6022V9.3513C20.35 5.01523 16.8355 1.5 12.5 1.5C8.16448 1.5 4.65 5.01523 4.65 9.3513V14.6022C4.65 16.0662 3.46347 17.2528 2 17.2528C1.72386 17.2528 1.5 17.4766 1.5 17.7528C1.5 18.0289 1.72386 18.2528 2 18.2528H23V17.2528ZM10.3079 21.3059C10.6656 21.0984 11.1237 21.2202 11.3312 21.5779C11.5729 21.9948 12.0183 22.2513 12.5 22.2513C12.9817 22.2513 13.4271 21.9948 13.6688 21.5779C13.8763 21.2202 14.3344 21.0984 14.6921 21.3059C15.0498 21.5133 15.1716 21.9715 14.9642 22.3292C14.4546 23.2078 13.5157 23.7487 12.5 23.7487C11.4843 23.7487 10.5454 23.2078 10.0358 22.3292C9.82837 21.9715 9.95016 21.5133 10.3079 21.3059Z" fill="#7C8592"/>
<path d="M4.50983 17.2528L4.07995 16.7991C3.89423 16.9751 3.83452 17.2465 3.92924 17.4842C4.02396 17.7218 4.25398 17.8778 4.50983 17.8778V17.2528ZM20.4902 17.2528V17.8778C20.746 17.8778 20.976 17.7218 21.0708 17.4842C21.1655 17.2465 21.1058 16.9751 20.92 16.7991L20.4902 17.2528ZM23 17.2528H23.625C23.625 16.9076 23.3452 16.6278 23 16.6278V17.2528ZM23 18.2528V18.8778C23.3452 18.8778 23.625 18.598 23.625 18.2528H23ZM11.3312 21.5779L11.8718 21.2643L11.3312 21.5779ZM10.3079 21.3059L9.9943 20.7652L10.3079 21.3059ZM13.6688 21.5779L13.1282 21.2643H13.1282L13.6688 21.5779ZM14.9642 22.3292L14.4235 22.0156L14.9642 22.3292ZM10.0358 22.3292L9.49518 22.6427L10.0358 22.3292ZM6.275 9.3513C6.275 5.91243 9.06221 3.125 12.5 3.125V1.875C8.37165 1.875 5.025 5.22227 5.025 9.3513H6.275ZM6.275 14.6022V9.3513H5.025V14.6022H6.275ZM4.93971 17.7065C5.76129 16.928 6.275 15.8246 6.275 14.6022H5.025C5.025 15.4674 4.66276 16.2469 4.07995 16.7991L4.93971 17.7065ZM20.4902 16.6278H4.50983V17.8778H20.4902V16.6278ZM18.725 14.6022C18.725 15.8246 19.2387 16.928 20.0603 17.7065L20.92 16.7991C20.3372 16.2469 19.975 15.4674 19.975 14.6022H18.725ZM18.725 9.3513V14.6022H19.975V9.3513H18.725ZM12.5 3.125C15.9378 3.125 18.725 5.91243 18.725 9.3513H19.975C19.975 5.22227 16.6283 1.875 12.5 1.875V3.125ZM23 16.6278C21.8818 16.6278 20.975 15.7211 20.975 14.6022H19.725C19.725 16.4113 21.1913 17.8778 23 17.8778V16.6278ZM20.975 14.6022V9.3513H19.725V14.6022H20.975ZM20.975 9.3513C20.975 4.67016 17.1808 0.875 12.5 0.875V2.125C16.4902 2.125 19.725 5.3603 19.725 9.3513H20.975ZM12.5 0.875C7.8192 0.875 4.025 4.67016 4.025 9.3513H5.275C5.275 5.3603 8.50977 2.125 12.5 2.125V0.875ZM4.025 9.3513V14.6022H5.275V9.3513H4.025ZM4.025 14.6022C4.025 15.7211 3.11819 16.6278 2 16.6278V17.8778C3.80875 17.8778 5.275 16.4113 5.275 14.6022H4.025ZM2 16.6278C1.37868 16.6278 0.875 17.1315 0.875 17.7528H2.125C2.125 17.8218 2.06904 17.8778 2 17.8778V16.6278ZM0.875 17.7528C0.875 18.3741 1.37868 18.8778 2 18.8778V17.6278C2.06904 17.6278 2.125 17.6838 2.125 17.7528H0.875ZM2 18.8778H23V17.6278H2V18.8778ZM23.625 18.2528V17.2528H22.375V18.2528H23.625ZM11.8718 21.2643C11.4912 20.608 10.6506 20.3846 9.9943 20.7652L10.6214 21.8465C10.6805 21.8122 10.7562 21.8324 10.7905 21.8915L11.8718 21.2643ZM12.5 21.6263C12.2412 21.6263 12.0018 21.4884 11.8718 21.2643L10.7905 21.8915C11.1441 22.5011 11.7954 22.8763 12.5 22.8763V21.6263ZM13.1282 21.2643C12.9982 21.4884 12.7588 21.6263 12.5 21.6263V22.8763C13.2046 22.8763 13.8559 22.5011 14.2095 21.8915L13.1282 21.2643ZM15.0057 20.7652C14.3494 20.3846 13.5088 20.608 13.1282 21.2643L14.2095 21.8915C14.2438 21.8324 14.3195 21.8122 14.3786 21.8465L15.0057 20.7652ZM15.5048 22.6427C15.8855 21.9864 15.662 21.1458 15.0057 20.7652L14.3786 21.8465C14.4377 21.8808 14.4578 21.9565 14.4235 22.0156L15.5048 22.6427ZM12.5 24.3737C13.7386 24.3737 14.8834 23.7141 15.5048 22.6427L14.4235 22.0156C14.0257 22.7015 13.2928 23.1237 12.5 23.1237V24.3737ZM9.49518 22.6427C10.1166 23.7141 11.2614 24.3737 12.5 24.3737V23.1237C11.7072 23.1237 10.9743 22.7015 10.5765 22.0156L9.49518 22.6427ZM9.9943 20.7652C9.338 21.1458 9.11454 21.9864 9.49518 22.6427L10.5765 22.0156C10.5422 21.9565 10.5623 21.8808 10.6214 21.8465L9.9943 20.7652Z" fill="#7C8592"/>
</svg>
