<svg width="18" height="24" viewBox="0 0 18 24" fill="none" xmlns="http://www.w3.org/2000/svg">
<path d="M12.7358 5.49313C12.7358 7.42234 11.1719 8.98626 9.24267 8.98626V10.9863C12.2764 10.9863 14.7358 8.5269 14.7358 5.49313H12.7358ZM9.24267 2C11.1719 2 12.7358 3.56393 12.7358 5.49313H14.7358C14.7358 2.45936 12.2764 0 9.24267 0V2ZM5.74954 5.49313C5.74954 3.56393 7.31347 2 9.24267 2V0C6.2089 0 3.74954 2.45936 3.74954 5.49313H5.74954ZM9.24267 8.98626C7.31347 8.98626 5.74954 7.42234 5.74954 5.49313H3.74954C3.74954 8.5269 6.2089 10.9863 9.24267 10.9863V8.98626ZM2.66016 18.0389C2.66016 16.0825 4.24613 14.4965 6.20252 14.4965V12.4965C3.14156 12.4965 0.660156 14.9779 0.660156 18.0389H2.66016ZM2.66016 18.4576V18.0389H0.660156V18.4576H2.66016ZM6.20252 22C4.24613 22 2.66016 20.414 2.66016 18.4576H0.660156C0.660156 21.5186 3.14156 24 6.20252 24V22ZM12.2826 22H6.20252V24H12.2826V22ZM15.8249 18.4576C15.8249 20.414 14.239 22 12.2826 22V24C15.3435 24 17.8249 21.5186 17.8249 18.4576H15.8249ZM15.8249 18.0389V18.4576H17.8249V18.0389H15.8249ZM12.2826 14.4965C14.239 14.4965 15.8249 16.0825 15.8249 18.0389H17.8249C17.8249 14.9779 15.3435 12.4965 12.2826 12.4965V14.4965ZM6.20252 14.4965H12.2826V12.4965H6.20252V14.4965Z" fill="#6E7FAA"/>
</svg>
