<svg width="24" height="22" viewBox="0 0 24 22" fill="none" xmlns="http://www.w3.org/2000/svg">
<path fill-rule="evenodd" clip-rule="evenodd" d="M11.1495 20.6734C11.3848 20.8841 11.6868 21 12 21C12.313 21 12.6152 20.8841 12.8503 20.6738C13.7411 19.8778 14.5993 19.1304 15.3566 18.4711L15.3569 18.4708C17.5729 16.5411 19.4865 14.8747 20.8182 13.2327C22.3068 11.3974 23 9.65709 23 7.75591C23 5.90876 22.3803 4.20464 21.2549 2.95726C20.1161 1.69513 18.5532 1 16.8543 1C15.5844 1 14.4214 1.41025 13.3977 2.21926C12.8809 2.62762 12.4127 3.1274 12 3.71036C11.5874 3.1274 11.1191 2.62762 10.6025 2.21926C9.57881 1.41025 8.4158 1 7.14587 1C5.44676 1 3.88411 1.69513 2.74527 2.95726C1.61986 4.20464 1 5.90876 1 7.75591C1 9.65709 1.69337 11.3974 3.18201 13.2329C4.5137 14.8747 6.42766 16.5415 8.64407 18.4714L8.64793 18.4749C9.40392 19.1331 10.2608 19.8794 11.1495 20.6734ZM3.6926 3.84979C4.5847 2.86121 5.81099 2.31685 7.14587 2.31685C8.12358 2.31685 9.02139 2.63448 9.81413 3.26083C10.5208 3.81926 11.0129 4.52519 11.3013 5.01914C11.4496 5.27315 11.7108 5.42476 12 5.42476C12.2892 5.42476 12.5504 5.27315 12.6987 5.01914C12.9873 4.52519 13.4794 3.81926 14.1859 3.26083C14.9786 2.63448 15.8764 2.31685 16.8543 2.31685C18.189 2.31685 19.4155 2.86121 20.3074 3.84979C21.2128 4.85329 21.7114 6.24046 21.7114 7.75591C21.7114 9.35489 21.1299 10.7849 19.826 12.3927C18.5668 13.9453 16.6945 15.5758 14.5266 17.4639L14.5207 17.469C13.7604 18.1308 12.8988 18.8812 11.9982 19.6826C11.1029 18.8827 10.2426 18.1336 9.48381 17.4727L9.47978 17.4693L9.47851 17.4682C7.30846 15.5785 5.43426 13.9464 4.17415 12.3927C2.87015 10.7849 2.28856 9.35489 2.28856 7.75591C2.28856 6.24046 2.78723 4.85329 3.6926 3.84979Z" fill="#7C8592"/>
<path d="M11.1495 20.6734L11.3162 20.4872L11.3161 20.487L11.1495 20.6734ZM12.8503 20.6738L12.6837 20.4874L12.6837 20.4874L12.8503 20.6738ZM15.3566 18.4711L15.5207 18.6597L15.5212 18.6592L15.3566 18.4711ZM15.3569 18.4708L15.1927 18.2823L15.1923 18.2827L15.3569 18.4708ZM20.8182 13.2327L20.624 13.0752L20.624 13.0752L20.8182 13.2327ZM21.2549 2.95726L21.4405 2.78979L21.4405 2.78978L21.2549 2.95726ZM13.3977 2.21926L13.5527 2.41541L13.5527 2.4154L13.3977 2.21926ZM12 3.71036L11.7959 3.85478L12 4.14306L12.204 3.85481L12 3.71036ZM10.6025 2.21926L10.7575 2.02313L10.7575 2.02311L10.6025 2.21926ZM2.74527 2.95726L2.55966 2.78978L2.55965 2.78979L2.74527 2.95726ZM3.18201 13.2329L2.98784 13.3904L2.98784 13.3904L3.18201 13.2329ZM8.64407 18.4714L8.81017 18.2846L8.80825 18.2829L8.64407 18.4714ZM8.64793 18.4749L8.48184 18.6617L8.48377 18.6634L8.64793 18.4749ZM3.6926 3.84979L3.507 3.6823L3.50698 3.68232L3.6926 3.84979ZM9.81413 3.26083L9.96914 3.06469L9.96912 3.06467L9.81413 3.26083ZM11.3013 5.01914L11.0854 5.14518L11.0854 5.14524L11.3013 5.01914ZM12.6987 5.01914L12.9146 5.14524L12.9146 5.14524L12.6987 5.01914ZM14.1859 3.26083L14.0309 3.06467L14.0308 3.0647L14.1859 3.26083ZM20.3074 3.84979L20.493 3.68232L20.493 3.68232L20.3074 3.84979ZM19.826 12.3927L20.0202 12.5501L20.0202 12.5501L19.826 12.3927ZM14.5266 17.4639L14.6908 17.6524L14.6908 17.6524L14.5266 17.4639ZM14.5207 17.469L14.6849 17.6575L14.6849 17.6575L14.5207 17.469ZM11.9982 19.6826L11.8316 19.8691L11.9978 20.0176L12.1643 19.8694L11.9982 19.6826ZM9.48381 17.4727L9.648 17.2842L9.64592 17.2824L9.48381 17.4727ZM9.47978 17.4693L9.31575 17.658L9.31767 17.6596L9.47978 17.4693ZM9.47851 17.4682L9.31433 17.6567L9.31449 17.6569L9.47851 17.4682ZM4.17415 12.3927L4.36832 12.2352L4.36831 12.2352L4.17415 12.3927ZM12 20.75C11.7489 20.75 11.5061 20.6571 11.3162 20.4872L10.9828 20.8597C11.2635 21.111 11.6247 21.25 12 21.25V20.75ZM12.6837 20.4874C12.4939 20.6571 12.251 20.75 12 20.75V21.25C12.3751 21.25 12.7364 21.111 13.017 20.8602L12.6837 20.4874ZM15.1924 18.2825C14.4352 18.9418 13.5759 19.6902 12.6837 20.4874L13.0169 20.8602C13.9063 20.0655 14.7633 19.319 15.5207 18.6597L15.1924 18.2825ZM15.1923 18.2827L15.192 18.283L15.5212 18.6592L15.5215 18.659L15.1923 18.2827ZM20.624 13.0752C19.309 14.6967 17.4142 16.3478 15.1927 18.2823L15.5211 18.6594C17.7315 16.7345 19.6641 15.0526 21.0123 13.3902L20.624 13.0752ZM22.75 7.75591C22.75 9.58691 22.0855 11.2733 20.624 13.0752L21.0123 13.3902C22.5281 11.5214 23.25 9.72726 23.25 7.75591H22.75ZM21.0693 3.12473C22.149 4.32146 22.75 5.96396 22.75 7.75591H23.25C23.25 5.85355 22.6116 4.08783 21.4405 2.78979L21.0693 3.12473ZM16.8543 1.25C18.4824 1.25 19.9778 1.9151 21.0693 3.12474L21.4405 2.78978C20.2543 1.47515 18.6241 0.75 16.8543 0.75V1.25ZM13.5527 2.4154C14.5335 1.64024 15.6423 1.25 16.8543 1.25V0.75C15.5265 0.75 14.3092 1.18026 13.2427 2.02311L13.5527 2.4154ZM12.204 3.85481C12.6042 3.28963 13.0562 2.80773 13.5527 2.41541L13.2427 2.0231C12.7056 2.44751 12.2213 2.96517 11.796 3.5659L12.204 3.85481ZM10.4475 2.41539C10.9438 2.80773 11.396 3.28964 11.7959 3.85478L12.2041 3.56594C11.7789 2.96515 11.2944 2.44751 10.7575 2.02313L10.4475 2.41539ZM7.14587 1.25C8.35789 1.25 9.46663 1.64024 10.4475 2.4154L10.7575 2.02311C9.691 1.18026 8.47371 0.75 7.14587 0.75V1.25ZM2.93088 3.12474C4.02235 1.9151 5.51758 1.25 7.14587 1.25V0.75C5.37594 0.75 3.74586 1.47516 2.55966 2.78978L2.93088 3.12474ZM1.25 7.75591C1.25 5.96398 1.85117 4.32147 2.93089 3.12473L2.55965 2.78979C1.38855 4.08782 0.75 5.85354 0.75 7.75591H1.25ZM3.37618 13.0754C1.91464 11.2733 1.25 9.5869 1.25 7.75591H0.75C0.75 9.72727 1.47211 11.5214 2.98784 13.3904L3.37618 13.0754ZM8.80825 18.2829C6.58628 16.3481 4.69125 14.6968 3.37617 13.0754L2.98784 13.3904C4.33615 15.0527 6.26903 16.7348 8.4799 18.66L8.80825 18.2829ZM8.81402 18.288L8.81016 18.2846L8.47799 18.6583L8.48185 18.6617L8.81402 18.288ZM11.3161 20.487C10.426 19.6917 9.56798 18.9445 8.8121 18.2863L8.48377 18.6634C9.23985 19.3218 10.0956 20.067 10.983 20.8599L11.3161 20.487ZM7.14587 2.06685C5.74043 2.06685 4.44664 2.64105 3.507 3.6823L3.8782 4.01728C4.72277 3.08138 5.88155 2.56685 7.14587 2.56685V2.06685ZM9.96912 3.06467C9.13384 2.40471 8.18182 2.06685 7.14587 2.06685V2.56685C8.06534 2.56685 8.90895 2.86425 9.65915 3.45699L9.96912 3.06467ZM11.5172 4.8931C11.2203 4.38462 10.7095 3.64976 9.96914 3.06469L9.65913 3.45698C10.3321 3.98877 10.8055 4.66576 11.0854 5.14518L11.5172 4.8931ZM12 5.17476C11.8015 5.17476 11.6216 5.07195 11.5171 4.89304L11.0854 5.14524C11.2776 5.47434 11.6201 5.67476 12 5.67476V5.17476ZM12.4829 4.89304C12.3784 5.07195 12.1985 5.17476 12 5.17476V5.67476C12.3799 5.67476 12.7224 5.47434 12.9146 5.14524L12.4829 4.89304ZM14.0308 3.0647C13.2907 3.64977 12.7799 4.38462 12.4829 4.89304L12.9146 5.14524C13.1947 4.66577 13.6681 3.98876 14.3409 3.45696L14.0308 3.0647ZM16.8543 2.06685C15.8182 2.06685 14.8662 2.4047 14.0309 3.06467L14.3409 3.45699C15.091 2.86426 15.9347 2.56685 16.8543 2.56685V2.06685ZM20.493 3.68232C19.5535 2.64104 18.2596 2.06685 16.8543 2.06685V2.56685C18.1185 2.56685 19.2774 3.08139 20.1218 4.01726L20.493 3.68232ZM21.9614 7.75591C21.9614 6.18665 21.4449 4.73741 20.493 3.68232L20.1218 4.01726C20.9806 4.96917 21.4614 6.29426 21.4614 7.75591H21.9614ZM20.0202 12.5501C21.3494 10.9112 21.9614 9.42729 21.9614 7.75591H21.4614C21.4614 9.28249 20.9104 10.6587 19.6318 12.2352L20.0202 12.5501ZM14.6908 17.6524C16.8528 15.7695 18.7443 14.1234 20.0202 12.5501L19.6319 12.2352C18.3893 13.7672 16.5363 15.3821 14.3624 17.2753L14.6908 17.6524ZM14.6849 17.6575L14.6908 17.6524L14.3624 17.2753L14.3565 17.2804L14.6849 17.6575ZM12.1643 19.8694C13.0639 19.069 13.9245 18.3194 14.6849 17.6575L14.3566 17.2804C13.5963 17.9422 12.7338 18.6934 11.832 19.4959L12.1643 19.8694ZM9.31963 17.6613C10.0786 18.3222 10.9376 19.0704 11.8316 19.8691L12.1647 19.4962C11.2681 18.6951 10.4067 17.9449 9.64799 17.2842L9.31963 17.6613ZM9.31767 17.6596L9.3217 17.6631L9.64592 17.2824L9.64189 17.279L9.31767 17.6596ZM9.31449 17.6569L9.31576 17.658L9.64381 17.2806L9.64254 17.2795L9.31449 17.6569ZM3.97998 12.5501C5.25679 14.1245 7.15022 15.7722 9.31433 17.6567L9.64269 17.2797C7.46669 15.3848 5.61173 13.7683 4.36832 12.2352L3.97998 12.5501ZM2.03856 7.75591C2.03856 9.42729 2.65065 10.9112 3.97999 12.5501L4.36831 12.2352C3.08965 10.6587 2.53856 9.28249 2.53856 7.75591H2.03856ZM3.50698 3.68232C2.55507 4.73741 2.03856 6.18665 2.03856 7.75591H2.53856C2.53856 6.29426 3.01939 4.96917 3.87822 4.01726L3.50698 3.68232Z" fill="#7C8592"/>
</svg>
